<?xml version="1.0" encoding="iso-8859-1"?>
<!-- Generator: Adobe Illustrator 19.0.0, SVG Export Plug-In . SVG Version: 6.00 Build 0)  -->
<svg version="1.1" id="Capa_1" xmlns="http://www.w3.org/2000/svg" xmlns:xlink="http://www.w3.org/1999/xlink" x="0px" y="0px" width="27px" height="27px"
	 viewBox="0 0 512 512" style="enable-background:new 0 0 512 512;" xml:space="preserve">
<path style="fill:#60312C;" d="M229,17.531h-1.707c-2.811-5.907-8.816-10-15.793-10s-12.982,4.093-15.793,10H194
	c-9.665,0-17.5,7.835-17.5,17.5s7.835,17.5,17.5,17.5h35c9.665,0,17.5-7.835,17.5-17.5S238.665,17.531,229,17.531z"/>
<polygon style="fill:#808080;" points="384.5,429.467 444.5,399.467 444.5,354.467 414.5,354.467 "/>
<polygon style="fill:#999999;" points="414.5,429.467 361.5,399.467 361.5,354.467 414.5,354.467 "/>
<polygon style="fill:#353535;" points="444.5,504.467 414.5,504.467 384.5,451.967 414.5,399.467 444.5,399.467 "/>
<rect x="361.5" y="399.47" style="fill:#4F4F4F;" width="53" height="105"/>
<polygon style="fill:#2DADE3;" points="135.5,232.467 67.5,262.467 105.5,172.467 135.5,172.467 "/>
<polygon style="fill:#49C9FF;" points="105.5,262.467 37.5,232.467 37.5,172.467 105.5,172.467 "/>
<polygon style="fill:#353535;" points="135.5,277.467 67.5,277.467 105.5,232.467 135.5,232.467 "/>
<rect x="37.5" y="232.47" style="fill:#4F4F4F;" width="68" height="45"/>
<polygon style="fill:#116F97;" points="271.5,307.467 151.5,307.467 241.5,352.467 271.5,352.467 "/>
<rect x="151.5" y="322.47" style="fill:#1990C2;" width="90" height="30"/>
<path style="fill:#FFA754;" d="M236.5,172.467h-30v105h50v-85C256.5,181.421,247.546,172.467,236.5,172.467z"/>
<path style="fill:#FFCB63;" d="M206.5,172.467h-20c-11.046,0-20,8.954-20,20v85h60v-85C226.5,181.421,217.546,172.467,206.5,172.467
	z"/>
<polygon style="fill:#CCCCCC;" points="350.5,217.461 350.5,277.467 410.5,277.467 410.5,217.467 "/>
<polygon style="fill:#EBEBEB;" points="474.5,232.467 444.5,232.467 414.5,157.467 474.5,202.467 "/>
<polygon style="fill:#FFFFFF;" points="444.5,232.467 286.5,232.467 286.5,202.467 444.5,157.467 "/>
<polygon style="fill:#353535;" points="444.498,202.467 399.495,140.8 444.498,82.467 474.5,82.467 474.5,202.467 "/>
<rect x="286.5" y="82.47" style="fill:#4F4F4F;" width="158" height="120"/>
<g>
	<path style="fill:#B9D171;" d="M444.5,119.967h-128c-4.143,0-7.5-3.358-7.5-7.5s3.357-7.5,7.5-7.5h128c4.143,0,7.5,3.358,7.5,7.5
		S448.643,119.967,444.5,119.967z"/>
	<path style="fill:#B9D171;" d="M444.5,149.967h-98c-4.143,0-7.5-3.358-7.5-7.5s3.357-7.5,7.5-7.5h98c4.143,0,7.5,3.358,7.5,7.5
		S448.643,149.967,444.5,149.967z"/>
	<path style="fill:#B9D171;" d="M444.5,179.967h-128c-4.143,0-7.5-3.358-7.5-7.5s3.357-7.5,7.5-7.5h128c4.143,0,7.5,3.358,7.5,7.5
		S448.643,179.967,444.5,179.967z"/>
</g>
<polygon style="fill:#B3B3B3;" points="474.5,277.467 399.5,277.467 444.5,322.467 474.5,322.467 "/>
<rect x="37.5" y="277.47" style="fill:#CCCCCC;" width="407" height="45"/>
<polygon style="fill:#808080;" points="474.5,262.467 444.5,277.467 474.5,292.467 504.5,292.467 504.5,262.467 "/>
<rect x="7.5" y="262.47" style="fill:#999999;" width="467" height="30"/>
<path style="fill:#A45E43;" d="M211.5,62.531v80c24.853,0,45-20.147,45-45c0-5.261-0.912-10.307-2.571-15L211.5,62.531z"/>
<path style="fill:#C27749;" d="M169.071,82.531c-1.659,4.693-2.571,9.739-2.571,15c0,24.853,20.147,45,45,45
	c8.284,0,15-20.147,15-45c0-5.261-0.304-10.307-0.857-15l-14.143-20L169.071,82.531z"/>
<path style="fill:#40211D;" d="M211.5,52.531l14.143,30h28.286C247.751,65.055,231.092,52.531,211.5,52.531z"/>
<path style="fill:#60312C;" d="M211.5,52.531c-19.592,0-36.251,12.524-42.429,30h56.572C223.583,65.055,218.03,52.531,211.5,52.531z
	"/>
<path d="M504.5,254.967H418v-15h56.5c4.143,0,7.5-3.358,7.5-7.5v-150c0-4.142-3.357-7.5-7.5-7.5h-188c-4.143,0-7.5,3.358-7.5,7.5
	v150c0,4.142,3.357,7.5,7.5,7.5H343v15h-79v-62.5c0-15.164-12.336-27.5-27.5-27.5h-50c-15.164,0-27.5,12.336-27.5,27.5v2.5h-16
	v-22.5c0-4.142-3.358-7.5-7.5-7.5h-98c-4.142,0-7.5,3.358-7.5,7.5v22.5h-7.5c-4.142,0-7.5,3.358-7.5,7.5s3.358,7.5,7.5,7.5H30v45
	H7.5c-4.142,0-7.5,3.358-7.5,7.5v30c0,4.142,3.358,7.5,7.5,7.5H30v204.5c0,4.142,3.358,7.5,7.5,7.5s7.5-3.358,7.5-7.5v-174.5h99
	v22.5c0,4.142,3.358,7.5,7.5,7.5H174v129.094l-24.872,8.291c-3.93,1.31-6.053,5.557-4.744,9.487c1.048,3.143,3.974,5.13,7.114,5.13
	c0.786,0,1.586-0.125,2.373-0.387l30-10c3.062-1.021,5.128-3.887,5.128-7.115v-134.5h45v134.5c0,3.228,2.066,6.094,5.128,7.115
	l30,10c0.787,0.262,1.587,0.387,2.373,0.387c3.141,0,6.066-1.988,7.114-5.13c1.31-3.93-0.814-8.177-4.743-9.487L249,489.061V359.967
	h22.5c4.143,0,7.5-3.358,7.5-7.5v-22.5h15v69.5c0,12.407,10.094,22.5,22.5,22.5s22.5-10.093,22.5-22.5v-69.5h75.5
	c4.143,0,7.5-3.358,7.5-7.5s-3.357-7.5-7.5-7.5H45v-15h422v15h-22.5c-4.143,0-7.5,3.358-7.5,7.5s3.357,7.5,7.5,7.5H467v174.5
	c0,4.142,3.357,7.5,7.5,7.5s7.5-3.358,7.5-7.5v-204.5h22.5c4.143,0,7.5-3.358,7.5-7.5v-30
	C512,258.324,508.643,254.967,504.5,254.967z M264,344.967H159v-15h105V344.967z M324,399.467c0,4.136-3.364,7.5-7.5,7.5
	s-7.5-3.364-7.5-7.5v-69.5h15V399.467z M467,89.967v105H294v-105C294,89.967,467,89.967,467,89.967z M294,209.967h173v15H294
	V209.967z M358,239.967h45v15h-45V239.967z M174,192.467c0-6.893,5.607-12.5,12.5-12.5h50c6.893,0,12.5,5.607,12.5,12.5v62.5h-75
	V192.467z M159,209.967v45h-16v-45H159z M52.559,194.967H45v-15h83v45H45v-15h7.559c4.142,0,7.5-3.358,7.5-7.5
	S56.701,194.967,52.559,194.967z M45,239.967h83v15H45V239.967z M497,284.967H15v-15h482V284.967z"/>
<path d="M444.5,346.967h-83c-4.143,0-7.5,3.358-7.5,7.5v150c0,4.142,3.357,7.5,7.5,7.5h83c4.143,0,7.5-3.358,7.5-7.5v-150
	C452,350.324,448.643,346.967,444.5,346.967z M437,361.967v30h-68v-30H437z M369,496.967v-90h68v90H369z"/>
<circle cx="403" cy="474.47" r="7.5"/>
<path d="M159,97.499c0,28.967,23.551,52.533,52.5,52.533S264,126.466,264,97.499c0-17.079-8.192-32.275-20.845-41.875
	C249.7,51.11,254,43.565,254,35.031c0-12.917-9.849-23.579-22.431-24.869c-4.664-6.27-12.117-10.131-20.069-10.131
	s-15.405,3.86-20.069,10.131C178.848,11.453,169,22.114,169,35.031c0,8.534,4.3,16.079,10.845,20.592
	C167.192,65.224,159,80.42,159,97.499z M213.636,60.031c11.39,0.644,21.439,6.395,27.884,15h-60.04
	c6.446-8.605,16.494-14.356,27.884-15H213.636z M211.5,135.031c-20.678,0-37.5-16.837-37.5-37.533c0-2.556,0.259-5.053,0.748-7.467
	h73.505c0.489,2.414,0.748,4.911,0.748,7.467C249,118.195,232.178,135.031,211.5,135.031z M194,45.031c-5.514,0-10-4.486-10-10
	s4.486-10,10-10h1.707c2.894,0,5.529-1.665,6.772-4.277c1.68-3.53,5.136-5.723,9.021-5.723s7.341,2.193,9.021,5.722
	c1.243,2.613,3.879,4.278,6.772,4.278H229c5.514,0,10,4.486,10,10s-4.486,10-10,10h-14.942c-0.848-0.041-1.7-0.065-2.558-0.065
	s-1.71,0.024-2.558,0.065H194z"/>
<g>
</g>
<g>
</g>
<g>
</g>
<g>
</g>
<g>
</g>
<g>
</g>
<g>
</g>
<g>
</g>
<g>
</g>
<g>
</g>
<g>
</g>
<g>
</g>
<g>
</g>
<g>
</g>
<g>
</g>
</svg>
