<?xml version="1.0" encoding="iso-8859-1"?>
<!-- Generator: Adobe Illustrator 21.0.0, SVG Export Plug-In . SVG Version: 6.00 Build 0)  -->
<svg version="1.1" id="Capa_1" xmlns="http://www.w3.org/2000/svg" xmlns:xlink="http://www.w3.org/1999/xlink" x="0px" y="0px" width="27px" height="27px"
	 viewBox="0 0 512 512" style="enable-background:new 0 0 512 512;" xml:space="preserve">
<g>
	<g transform="translate(1 9)">
		<path style="fill:#9D27B0;" d="M67.267,161.667h68.267V298.2H67.267c-14.138,0-25.6-11.462-25.6-25.6v-85.333
			C41.667,173.128,53.128,161.667,67.267,161.667z"/>
		<path style="fill:#6A1B9A;" d="M468.333,187.267V272.6c0,14.138-11.462,25.6-25.6,25.6h-68.267V161.667h68.267
			C456.872,161.667,468.333,173.128,468.333,187.267z"/>
		<path style="fill:#9D27B0;" d="M442.733,187.267V272.6c0,14.138-11.462,25.6-25.6,25.6h-42.667V161.667h42.667
			C431.272,161.667,442.733,173.128,442.733,187.267z"/>
		<rect x="212.333" y="298.2" style="fill:#607D8B;" width="85.333" height="93.867"/>
		<path style="fill:#4527A0;" d="M476.867,451.8v42.667H33.133V451.8c0-28.277,22.923-51.2,51.2-51.2h85.333v59.733L255,417.667
			l85.333,42.667V400.6h85.333C453.944,400.6,476.867,423.523,476.867,451.8z"/>
		<path style="fill:#673AB7;" d="M451.267,451.8v42.667H33.133V451.8c0-28.277,22.923-51.2,51.2-51.2h85.333v59.733L255,417.667
			l59.733,29.867l25.6,12.8V400.6h59.733C428.344,400.6,451.267,423.523,451.267,451.8z"/>
		<path style="fill:#4527A0;" d="M135.533,67.8h238.933c9.426,0,17.067,7.641,17.067,17.067v221.867
			c0,9.426-7.641,17.067-17.067,17.067H135.533c-9.426,0-17.067-7.641-17.067-17.067V84.867
			C118.467,75.441,126.108,67.8,135.533,67.8z"/>
		<path style="fill:#673AB7;" d="M135.533,67.8h213.333c9.426,0,17.067,7.641,17.067,17.067v221.867
			c0,9.426-7.641,17.067-17.067,17.067H135.533c-9.426,0-17.067-7.641-17.067-17.067V84.867
			C118.467,75.441,126.108,67.8,135.533,67.8z"/>
		<path style="fill:#9E9D24;" d="M186.733,101.933h136.533c18.851,0,34.133,15.282,34.133,34.133v119.467
			c0,18.851-15.282,34.133-34.133,34.133H186.733c-18.851,0-34.133-15.282-34.133-34.133V136.067
			C152.6,117.215,167.882,101.933,186.733,101.933z"/>
		<path style="fill:#CDDC39;" d="M186.733,101.933h110.933c18.851,0,34.133,15.282,34.133,34.133v119.467
			c0,18.851-15.282,34.133-34.133,34.133H186.733c-18.851,0-34.133-15.282-34.133-34.133V136.067
			C152.6,117.215,167.882,101.933,186.733,101.933z"/>
	</g>
	<g>
		<path d="M324.267,102.4H187.733c-23.552,0.028-42.638,19.114-42.667,42.667v119.467c0.028,23.552,19.114,42.638,42.667,42.667
			h136.533c23.552-0.028,42.638-19.114,42.667-42.667V145.067C366.905,121.514,347.819,102.428,324.267,102.4z M349.867,264.533
			c0,14.138-11.462,25.6-25.6,25.6H187.733c-14.138,0-25.6-11.462-25.6-25.6V145.067c0-14.139,11.462-25.6,25.6-25.6h136.533
			c14.138,0,25.6,11.462,25.6,25.6V264.533z"/>
		<path d="M187.733,153.6H204.8c4.713,0,8.533-3.821,8.533-8.533c0-4.713-3.821-8.533-8.533-8.533h-17.067
			c-4.713,0-8.533,3.821-8.533,8.533C179.2,149.779,183.021,153.6,187.733,153.6z"/>
		<path d="M238.933,153.6H307.2c4.713,0,8.533-3.821,8.533-8.533c0-4.713-3.82-8.533-8.533-8.533h-68.267
			c-4.713,0-8.533,3.821-8.533,8.533C230.4,149.779,234.221,153.6,238.933,153.6z"/>
		<path d="M307.2,204.8h-17.067c-4.713,0-8.533,3.82-8.533,8.533s3.821,8.533,8.533,8.533H307.2c4.713,0,8.533-3.821,8.533-8.533
			S311.913,204.8,307.2,204.8z"/>
		<path d="M256,204.8h-68.267c-4.713,0-8.533,3.82-8.533,8.533s3.821,8.533,8.533,8.533H256c4.713,0,8.533-3.821,8.533-8.533
			S260.713,204.8,256,204.8z"/>
		<path d="M324.267,170.667H187.733c-4.713,0-8.533,3.821-8.533,8.533s3.821,8.533,8.533,8.533h136.533
			c4.713,0,8.533-3.82,8.533-8.533S328.98,170.667,324.267,170.667z"/>
		<path d="M76.8,51.2v110.933h-8.533c-18.851,0-34.133,15.282-34.133,34.133V281.6c0,18.851,15.282,34.133,34.133,34.133H76.8V358.4
			c0,14.138,11.462,25.6,25.6,25.6h68.267c4.713,0,8.533-3.821,8.533-8.533c0-4.713-3.821-8.533-8.533-8.533H102.4
			c-4.713,0-8.533-3.82-8.533-8.533v-42.667h17.067c0,14.138,11.462,25.6,25.6,25.6H204.8v59.733c0,4.713,3.82,8.533,8.533,8.533
			s8.533-3.821,8.533-8.533v-59.733h68.267v59.733c0,4.713,3.82,8.533,8.533,8.533s8.533-3.821,8.533-8.533v-59.733h68.267
			c14.138,0,25.6-11.462,25.6-25.6h42.667c18.851,0,34.133-15.282,34.133-34.133v-85.333c0-18.851-15.282-34.133-34.133-34.133
			H435.2V51.2C435.172,22.935,412.265,0.028,384,0H128C99.735,0.028,76.828,22.935,76.8,51.2z M68.267,298.667
			c-9.426,0-17.067-7.641-17.067-17.067v-85.333c0-9.426,7.641-17.067,17.067-17.067h42.667v119.467H68.267z M384,315.733
			c0,4.713-3.821,8.533-8.533,8.533H136.533c-4.713,0-8.533-3.821-8.533-8.533V93.867c0-4.713,3.821-8.533,8.533-8.533h238.933
			c4.713,0,8.533,3.821,8.533,8.533V315.733z M460.8,196.267V281.6c0,9.426-7.641,17.067-17.067,17.067h-42.667V179.2h42.667
			C453.159,179.2,460.8,186.841,460.8,196.267z M418.133,51.2v110.933h-17.067V93.867c0-14.138-11.462-25.6-25.6-25.6H136.533
			c-14.138,0-25.6,11.462-25.6,25.6v68.267H93.867V51.2c0-18.851,15.282-34.133,34.133-34.133h256
			C402.851,17.067,418.133,32.349,418.133,51.2z"/>
		<path d="M25.6,503.467c0,4.713,3.821,8.533,8.533,8.533h443.733c4.713,0,8.533-3.82,8.533-8.533V460.8
			c-0.038-32.974-26.759-59.696-59.733-59.733h-85.333c-4.713,0-8.533,3.821-8.533,8.533v45.926l-72.986-36.497
			c-2.401-1.2-5.227-1.2-7.629,0L179.2,455.526V409.6c0-4.713-3.821-8.533-8.533-8.533H85.333
			C52.359,401.104,25.638,427.826,25.6,460.8V503.467z M42.667,460.8c0.028-23.552,19.114-42.638,42.667-42.667h76.8v51.2
			c-0.016,2.965,1.508,5.727,4.026,7.293c2.518,1.566,5.669,1.713,8.321,0.387L256,436.207l81.519,40.806
			c2.653,1.326,5.803,1.179,8.321-0.387c2.518-1.566,4.043-4.327,4.026-7.293v-51.2h76.8c23.552,0.028,42.638,19.114,42.667,42.667
			v34.133H42.667V460.8z"/>
	</g>
</g>
<g>
</g>
<g>
</g>
<g>
</g>
<g>
</g>
<g>
</g>
<g>
</g>
<g>
</g>
<g>
</g>
<g>
</g>
<g>
</g>
<g>
</g>
<g>
</g>
<g>
</g>
<g>
</g>
<g>
</g>
</svg>
