<?xml version="1.0" encoding="iso-8859-1"?>
<!-- Generator: Adobe Illustrator 19.0.0, SVG Export Plug-In . SVG Version: 6.00 Build 0)  -->
<svg version="1.1" id="Capa_1" xmlns="http://www.w3.org/2000/svg" xmlns:xlink="http://www.w3.org/1999/xlink" x="0px" y="0px" width="27px" height="27px"
	 viewBox="0 0 512 512" style="enable-background:new 0 0 512 512;" xml:space="preserve">
<path style="fill:#F6DC84;" d="M363.164,107.848l19.638-45.821c6.533-15.243,1.511-33.354-11.939-43.066l-5.204-4.303l-29.21,68.158
	"/>
<path style="fill:#56BFA1;" d="M336.448,82.817l5.161,2.908c29.574,16.662,32.61,48.843,19.229,80.065l-24.39,56.912
	c-11.869,27.696-22.268,39.004-61.273,53.703c-4.429,1.671-9.168,3.459-14.187,5.385l-11.745,4.509L336.448,82.817z"/>
<path style="fill:#FFA65C;" d="M359.993,12.927l5.665,1.732l-59.301,138.372l-34.185-85.459l7.41-17.289
	C292.961,19.063,327.532,3.004,359.993,12.927z"/>
<polygon style="fill:#26937E;" points="306.357,153.031 272.172,67.571 240.048,142.532 274.227,228.001 "/>
<path style="fill:#EFD873;" d="M240.048,142.532l-13.753,32.09c-11.869,27.696-3.712,46.956,12.541,85.328
	c1.847,4.367,3.821,9.032,5.887,13.996l4.836,11.615l24.668-57.56L240.048,142.532z"/>
<path style="fill:#E2C8BA;" d="M284.886,350.679v-11.896h15.942c8.861,0,16.044-7.185,16.044-16.049l0,0
	c0-8.864-7.183-16.049-16.044-16.049H190.101c-8.861,0-16.044,7.185-16.044,16.049l0,0c0,8.864,7.183,16.049,16.044,16.049h16.859
	v11.896c0,9.582-7.765,17.349-17.344,17.349H153.04c-14.732,0-26.674,11.946-26.674,26.683v80.606
	c0,14.737,11.943,26.683,26.674,26.683h183.932c14.732,0,26.674-11.946,26.674-26.683v-80.606c0-14.737-11.943-26.683-26.674-26.683
	H302.23C292.651,368.029,284.886,360.261,284.886,350.679z"/>
<rect x="162.628" y="404.307" style="fill:#56BFA1;" width="164.759" height="61.43"/>
<path d="M289.215,445.01c-0.65,0-1.311-0.06-1.96-0.19c-0.63-0.13-1.26-0.32-1.87-0.57c-0.6-0.25-1.18-0.56-1.72-0.92
	c-0.551-0.37-1.061-0.79-1.521-1.25s-0.88-0.97-1.25-1.52c-0.359-0.54-0.67-1.12-0.92-1.72c-0.25-0.61-0.439-1.24-0.57-1.87
	c-0.13-0.65-0.189-1.31-0.189-1.96c0-2.63,1.06-5.21,2.93-7.07c0.46-0.46,0.97-0.88,1.521-1.24c0.54-0.36,1.12-0.67,1.72-0.92
	c0.61-0.25,1.24-0.44,1.87-0.57c1.29-0.26,2.62-0.26,3.91,0c0.64,0.13,1.27,0.32,1.87,0.57c0.609,0.25,1.189,0.56,1.729,0.92
	c0.55,0.36,1.059,0.78,1.521,1.24c1.859,1.86,2.93,4.44,2.93,7.07c0,0.65-0.07,1.31-0.2,1.96c-0.13,0.63-0.32,1.26-0.57,1.87
	c-0.25,0.6-0.56,1.18-0.92,1.72c-0.359,0.55-0.779,1.06-1.239,1.52c-0.461,0.46-0.971,0.88-1.521,1.25
	c-0.54,0.36-1.12,0.67-1.729,0.92c-0.601,0.25-1.231,0.44-1.87,0.57C290.525,444.95,289.865,445.01,289.215,445.01z"/>
<path d="M371.315,7.954l-3.214-1.756c-4.291-2.345-8.919-4.034-13.727-4.924c-34.716-6.423-69.758,11.877-83.983,45.069
	l-7.41,17.289c-0.002,0.005-0.004,0.01-0.006,0.014l-45.871,107.035c-13.549,31.612-4.288,53.476,12.522,93.164l0.064,0.149
	c1.822,4.309,3.767,8.906,5.803,13.795l3.212,7.715l-4.792,11.182H190.66c-14.174,0-26.17,11.093-26.59,25.26
	c-0.437,14.722,11.409,26.838,26.031,26.838h6.859v1.895c0,4.059-3.291,7.35-7.35,7.35h-36.57
	c-20.254,0-36.674,16.419-36.674,36.674v80.615c0,20.259,16.424,36.683,36.683,36.683h183.923c20.254,0,36.674-16.419,36.674-36.674
	v-80.615c0-20.259-16.423-36.683-36.683-36.683h-34.727c-4.059,0-7.35-3.29-7.35-7.35v-1.895h5.383
	c14.174,0,26.17-11.092,26.591-25.26c0.438-14.722-11.41-26.838-26.032-26.838H255.67l1.099-2.565l7.802-2.995
	c4.932-1.893,9.591-3.651,13.95-5.296l0.18-0.068c42.116-15.871,54.151-29.288,66.938-59.122l24.39-56.911
	c9.791-22.845,10.901-44.366,4.012-61.876l17.952-41.889c2.771-6.466,3.918-13.336,3.585-20.084
	C394.789,29.909,385.349,15.623,371.315,7.954z M306.873,322.734c0,3.336-2.711,6.049-6.044,6.049h-52.469c-5.523,0-10,4.477-10,10
	c0,5.523,4.477,10,10,10h26.526v1.895c0,15.081,12.267,27.35,27.344,27.35h34.742c9.194,0,16.674,7.484,16.674,16.683v80.606
	c0,9.199-7.479,16.683-16.674,16.683H153.04c-9.194,0-16.674-7.484-16.674-16.683v-80.606c0-9.199,7.479-16.683,16.674-16.683
	h36.576c15.077,0,27.344-12.269,27.344-27.35v-11.895c0-5.523-4.478-10-10-10h-16.859c-3.332,0-6.043-2.714-6.043-6.049
	c0-3.335,2.711-6.049,6.043-6.049h110.728C304.162,316.686,306.873,319.399,306.873,322.734z M288.773,54.222
	c10.668-24.892,37.189-38.436,63.208-33.036l-45.306,105.715l-23.681-59.199L288.773,54.222z M271.853,93.701l23.681,59.199
	l-20.987,48.97l-23.677-59.206L271.853,93.701z M235.487,178.56l4.241-9.896l23.677,59.205l-13.729,32.037
	c-0.531-1.257-1.054-2.491-1.566-3.703l-0.064-0.154C231.955,218.062,225.296,202.339,235.487,178.56z M351.646,161.853
	l-24.39,56.911c-10.822,25.252-19.434,34.653-55.611,48.286l-0.183,0.069c-1.218,0.459-2.458,0.927-3.722,1.405l73.405-171.282
	c5.903,4.165,9.981,9.025,12.689,14.21c0.216,0.558,0.48,1.097,0.792,1.609C362.805,130.711,356.027,151.628,351.646,161.853z
	 M373.61,58.088l-12.737,29.72c-3.424-3.42-7.336-6.514-11.725-9.238l20.311-47.393C375.696,38.494,377.504,49,373.61,58.088z"/>
<path d="M152.628,404.302v61.426c0,5.523,4.477,10,10,10h164.757c5.523,0,10-4.477,10-10v-61.426c0-5.523-4.477-10-10-10H162.628
	C157.105,394.302,152.628,398.779,152.628,404.302z M317.384,414.302v41.426H172.628v-10.713h82.873c5.522,0,10-4.477,10-10
	s-4.478-10-10-10h-82.873v-10.713L317.384,414.302L317.384,414.302z"/>
<g>
</g>
<g>
</g>
<g>
</g>
<g>
</g>
<g>
</g>
<g>
</g>
<g>
</g>
<g>
</g>
<g>
</g>
<g>
</g>
<g>
</g>
<g>
</g>
<g>
</g>
<g>
</g>
<g>
</g>
</svg>
