<?xml version="1.0" standalone="no"?>
<!DOCTYPE svg PUBLIC "-//W3C//DTD SVG 20010904//EN"
 "http://www.w3.org/TR/2001/REC-SVG-20010904/DTD/svg10.dtd">
<svg version="1.0" xmlns="http://www.w3.org/2000/svg"
 width="200.000000pt" height="50.000000pt" viewBox="0 0 374.000000 84.000000"
 preserveAspectRatio="xMidYMid meet">

<g transform="translate(0.000000,84.000000) scale(0.100000,-0.100000)"
fill="#ffffff" stroke="none">
<path d="M3166 739 c-53 -15 -71 -17 -82 -8 -20 16 -24 9 -40 -63 -20 -93 -19
-110 8 -106 17 2 25 13 33 45 5 23 15 47 20 52 13 13 203 50 235 46 14 -2 31
-4 38 -4 6 -1 12 -5 12 -11 0 -5 -38 -80 -85 -167 -121 -225 -181 -403 -154
-455 12 -23 28 -38 40 -38 4 0 4 28 2 63 -5 54 -1 74 30 152 62 161 156 327
240 424 l30 35 -22 18 c-53 42 -189 50 -305 17z"/>
<path d="M117 743 c-3 -5 -8 -151 -12 -326 -7 -293 -6 -319 10 -337 34 -37 40
-16 37 117 -5 186 18 248 89 241 61 -6 88 -99 89 -305 0 -88 1 -93 21 -93 21
0 21 3 18 158 -4 136 -7 162 -25 192 -41 70 -121 100 -173 63 l-24 -16 6 146
c5 137 4 148 -13 157 -10 6 -21 7 -23 3z"/>
<path d="M2675 721 c-43 -19 -114 -90 -139 -139 -20 -39 -20 -76 -1 -92 23
-19 41 3 49 61 13 97 121 176 206 150 108 -32 98 -165 -26 -337 -25 -35 -92
-111 -150 -168 -57 -57 -104 -108 -104 -114 0 -5 7 -15 16 -22 12 -11 30 -10
102 9 110 28 241 42 309 34 52 -6 53 -5 53 21 0 16 -7 29 -16 33 -10 3 -94 -6
-188 -20 -94 -15 -174 -27 -178 -27 -25 0 3 38 78 107 157 142 235 263 236
363 1 127 -123 198 -247 141z"/>
<path d="M3546 654 c-4 -10 -2 -22 3 -27 7 -7 13 -5 17 7 4 10 2 22 -3 27 -7
7 -13 5 -17 -7z"/>
<path d="M2339 548 c-1 -113 -7 -131 -47 -139 -18 -4 -35 -9 -39 -12 -12 -13
10 -27 43 -27 l34 0 0 -130 c0 -127 11 -185 34 -177 7 2 11 57 11 158 l0 153
38 7 c45 7 52 13 43 35 -5 13 -14 15 -42 11 l-36 -6 4 102 c3 99 2 102 -19
105 -22 3 -23 1 -24 -80z"/>
<path d="M3557 572 c-10 -10 -17 -30 -17 -43 0 -29 36 -73 51 -63 6 4 2 15
-11 29 -34 36 -23 59 30 63 53 3 87 -16 77 -43 -5 -13 -15 -16 -37 -13 -19 3
-29 1 -27 -6 2 -6 18 -12 35 -14 26 -3 34 1 43 22 16 34 6 54 -36 71 -47 20
-89 19 -108 -3z"/>
<path d="M1376 488 c-8 -13 -22 -40 -32 -60 -10 -21 -21 -38 -24 -38 -3 0 -14
18 -24 40 -22 49 -60 78 -85 64 -9 -6 -30 -36 -46 -67 -17 -30 -34 -59 -39
-64 -4 -4 -6 24 -4 62 2 57 0 70 -12 70 -22 0 -32 -96 -27 -255 6 -143 11
-170 33 -170 11 0 14 21 14 98 0 112 15 175 59 245 37 57 63 62 81 15 7 -18
16 -100 19 -183 5 -137 8 -150 25 -150 16 0 18 11 21 115 3 126 21 202 59 247
29 33 51 26 73 -24 12 -29 18 -80 21 -205 4 -156 6 -168 23 -168 18 0 19 10
19 143 0 163 -14 227 -59 276 -35 38 -74 41 -95 9z"/>
<path d="M904 465 c-31 -33 -33 -34 -36 -13 -3 23 -34 37 -48 21 -5 -4 -5 -96
-2 -203 7 -181 8 -195 26 -195 17 0 19 11 20 135 3 144 13 194 50 237 23 26
24 27 50 10 14 -10 26 -26 26 -37 0 -11 7 -20 15 -20 25 0 17 44 -13 73 -37
35 -48 34 -88 -8z"/>
<path d="M1699 486 c-51 -25 -94 -166 -87 -280 5 -79 27 -115 85 -135 37 -13
45 -13 89 4 57 22 104 64 104 94 0 30 -11 26 -55 -19 -64 -65 -132 -72 -166
-16 -11 17 -18 44 -17 61 3 32 3 31 71 18 58 -11 140 53 153 121 8 44 -20 93
-73 128 -49 32 -76 38 -104 24z m111 -68 c49 -81 -1 -186 -85 -176 -16 2 -37
14 -48 30 -19 25 -19 32 -8 80 15 66 43 98 88 98 27 0 37 -6 53 -32z"/>
<path d="M2044 490 c-31 -12 -52 -45 -74 -119 -27 -87 -27 -204 0 -249 24 -40
81 -66 124 -58 74 15 157 89 130 116 -7 7 -24 -3 -56 -33 -83 -80 -162 -66
-175 31 -6 46 5 57 40 41 40 -18 93 -3 136 40 43 43 54 85 35 128 -26 60 -117
119 -160 103z m110 -83 c23 -49 15 -100 -24 -139 -35 -34 -75 -37 -107 -6 -25
24 -29 57 -12 109 19 55 48 80 89 77 29 -3 38 -9 54 -41z"/>
<path d="M520 460 c-32 -34 -53 -88 -48 -122 4 -29 28 -36 28 -8 0 24 32 91
52 107 34 29 99 15 117 -24 7 -16 16 -54 18 -85 l6 -58 -64 0 c-76 0 -133 -23
-172 -69 -31 -38 -33 -48 -11 -79 37 -53 133 -68 204 -32 l39 20 3 -38 c2 -26
8 -38 21 -40 16 -3 17 10 17 175 0 206 -7 229 -83 263 -61 28 -94 26 -127 -10z
m164 -242 c29 -46 -44 -118 -120 -118 -84 0 -107 85 -33 123 44 23 137 20 153
-5z"/>
<path d="M3560 412 c-50 -40 -14 -112 57 -112 91 0 125 83 47 116 -45 19 -77
18 -104 -4z m112 -34 l21 -21 -23 -19 c-35 -29 -120 -10 -120 26 0 40 86 50
122 14z"/>
<path d="M3547 254 c-13 -14 6 -24 44 -24 44 0 106 -27 93 -40 -5 -5 -36 -10
-68 -12 -80 -4 -90 -28 -13 -28 64 0 87 -7 87 -25 0 -19 -24 -25 -91 -25 -46
0 -59 -3 -59 -15 0 -19 78 -20 130 -2 39 13 51 45 25 67 -14 12 -14 15 1 31
14 16 15 21 3 35 -11 14 -11 18 -1 21 6 3 10 9 6 14 -6 10 -147 13 -157 3z"/>
</g>
</svg>
