<?xml version="1.0" encoding="UTF-8"?>
<svg xmlns="http://www.w3.org/2000/svg" xmlns:xlink="http://www.w3.org/1999/xlink" width="60px" height="55px" viewBox="0 0 104 104" version="1.1">
<linearGradient id="8hD4rQAUvDlnOcrtKRMHva" x1="32" x2="32" y1="542.25" y2="590.76" gradientTransform="translate(0 -534)" gradientUnits="userSpaceOnUse">
<stop offset="0" stop-color="#1a6dff"/>
<stop offset="1" stop-color="#c822ff"/>
</linearGradient>
<path fill="url(#8hD4rQAUvDlnOcrtKRMHva)" d="M 82.125 1.875 C 79.953125 2.171875 78.453125 4.1875 78.75 6.375 L 83.375 38.125 C 83.6875 40.296875 85.703125 41.8125 87.875 41.5 C 90.0625 41.1875 91.5625 39.0625 91.25 36.875 L 86.75 5.25 C 86.4375 3.078125 84.3125 1.5625 82.125 1.875 Z M 58 10.25 C 57.484375 10.34375 56.96875 10.578125 56.5 10.875 C 54.65625 12.078125 54.171875 14.515625 55.375 16.375 L 72.875 43.25 C 74.078125 45.09375 76.53125 45.578125 78.375 44.375 C 80.234375 43.171875 80.703125 40.734375 79.5 38.875 L 62 12 C 61.09375 10.625 59.53125 9.96875 58 10.25 Z M 40.5 27 C 39.484375 27.1875 38.5 27.84375 37.875 28.75 C 36.625 30.5625 37.0625 32.984375 38.875 34.25 L 65.25 52.5 C 67.046875 53.75 69.5 53.296875 70.75 51.5 C 72.015625 49.6875 71.5625 47.125 69.75 45.875 L 43.5 27.75 C 42.59375 27.125 41.515625 26.8125 40.5 27 Z M 30.875 46 C 29.328125 46.171875 27.96875 47.15625 27.5 48.75 C 26.875 50.859375 28.140625 53.125 30.25 53.75 L 60.875 62.75 C 62.984375 63.375 65.25 62.234375 65.875 60.125 C 66.5 58.015625 65.234375 55.75 63.125 55.125 L 32.5 46.125 C 31.96875 45.96875 31.390625 45.9375 30.875 46 Z M 8 64 L 8 92 C 8 98.625 13.375 104 20 104 L 68 104 C 74.625 104 80 98.625 80 92 L 80 64 L 72 64 L 72 92 C 72 94.203125 70.203125 96 68 96 L 20 96 C 17.796875 96 16 94.203125 16 92 L 16 64 Z M 28.5 64.5 C 26.296875 64.28125 24.34375 65.9375 24.125 68.125 C 23.90625 70.328125 25.5625 72.28125 27.75 72.5 L 59.625 75.625 C 61.828125 75.84375 63.78125 74.203125 64 72 C 64.21875 69.8125 62.5625 67.84375 60.375 67.625 Z M 28 80 C 25.796875 80 24 81.796875 24 84 C 24 86.203125 25.796875 88 28 88 L 60 88 C 62.203125 88 64 86.203125 64 84 C 64 81.796875 62.203125 80 60 80 Z M 28 80 "/>
</svg>
